<svg width="24" height="24" viewBox="0 0 24 24" fill="none" xmlns="http://www.w3.org/2000/svg">
<g clip-path="url(#clip0_3719_369)">
<path d="M13.25 0.75C10.2663 0.75 7.40483 1.93526 5.29505 4.04505C3.18526 6.15483 2 9.01631 2 12H-1.75L3.1125 16.8625L3.2 17.0375L8.25 12H4.5C4.5 7.1625 8.4125 3.25 13.25 3.25C18.0875 3.25 22 7.1625 22 12C22 16.8375 18.0875 20.75 13.25 20.75C10.8375 20.75 8.65 19.7625 7.075 18.175L5.3 19.95C6.34177 20.9975 7.58061 21.8284 8.94508 22.3948C10.3095 22.9612 11.7726 23.2518 13.25 23.25C16.2337 23.25 19.0952 22.0647 21.205 19.955C23.3147 17.8452 24.5 14.9837 24.5 12C24.5 9.01631 23.3147 6.15483 21.205 4.04505C19.0952 1.93526 16.2337 0.75 13.25 0.75ZM12 7V13.25L17.3125 16.4L18.275 14.8L13.875 12.1875V7H12Z" fill="#4461F2"/>
</g>
<defs>
<clipPath id="clip0_3719_369">
<rect width="24" height="24" fill="white"/>
</clipPath>
</defs>
</svg>
