<svg width="25" height="26" viewBox="0 0 25 26" fill="none" xmlns="http://www.w3.org/2000/svg">
<path d="M5.20841 2.58334H19.7917C20.068 2.58334 20.333 2.69308 20.5283 2.88843C20.7237 3.08378 20.8334 3.34874 20.8334 3.625V22.375C20.8334 22.6513 20.7237 22.9162 20.5283 23.1116C20.333 23.3069 20.068 23.4167 19.7917 23.4167H5.20841C4.93215 23.4167 4.6672 23.3069 4.47185 23.1116C4.27649 22.9162 4.16675 22.6513 4.16675 22.375V3.625C4.16675 3.34874 4.27649 3.08378 4.47185 2.88843C4.6672 2.69308 4.93215 2.58334 5.20841 2.58334ZM9.37508 11.9583V8.83334L4.16675 13L9.37508 17.1667V14.0417H15.6251V11.9583H9.37508Z" fill="#4461F2"/>
</svg>
